<?xml version="1.0" encoding="UTF-8"?>
<!DOCTYPE svg PUBLIC "-//W3C//DTD SVG 1.1//EN" "http://www.w3.org/Graphics/SVG/1.1/DTD/svg11.dtd">
<svg version="1.1" xmlns="http://www.w3.org/2000/svg" xmlns:xlink="http://www.w3.org/1999/xlink" x="0" y="0" width="84" height="84" viewBox="0, 0, 84, 84">
  <g id="Background">
    <rect x="0" y="0" width="84" height="84" fill="#000000" fill-opacity="0"/>
  </g>
  <g id="Layer_1">
    <g>
      <path d="M42.5,1.5 C65.144,1.5 83.5,19.856 83.5,42.5 C83.5,65.144 65.144,83.5 42.5,83.5 C19.856,83.5 1.5,65.144 1.5,42.5 C1.5,19.856 19.856,1.5 42.5,1.5 z M39.817,16.077 L22.432,16.077 C22.032,16.078 21.637,16.174 21.282,16.358 C20.239,16.9 19.623,17.899 18.047,20.855 C17.943,21.05 17.838,21.249 17.731,21.454 C17.256,22.36 16.765,23.327 16.285,24.293 C16.118,24.632 15.963,24.945 15.826,25.227 C15.743,25.398 15.683,25.52 15.651,25.587 C15.488,25.925 15.403,26.296 15.403,26.671 L15.403,63.184 C15.403,64.564 16.521,65.681 17.9,65.681 L69.808,65.681 C71.189,65.681 72.308,64.56 72.305,63.179 L72.229,26.666 C72.227,25.289 71.11,24.175 69.733,24.174 L45.38,24.174 C44.643,22.495 45.03,23.365 44.219,21.565 C44.131,21.371 44.044,21.182 43.958,20.997 C42.736,18.364 42.149,17.251 41.391,16.636 C40.946,16.275 40.39,16.078 39.817,16.077 z M38.441,21.071 C39.059,22.295 38.727,21.62 39.428,23.099 C39.51,23.274 39.593,23.455 39.677,23.64 C40.076,24.514 40.492,25.453 40.9,26.393 C41.043,26.722 41.174,27.028 41.291,27.302 C41.361,27.465 41.41,27.581 41.435,27.641 C41.825,28.567 42.732,29.168 43.736,29.168 L67.241,29.168 L67.306,60.688 L20.397,60.688 L20.397,27.247 C20.603,26.828 20.482,27.073 20.759,26.513 C21.223,25.577 21.698,24.642 22.153,23.772 C22.255,23.578 22.355,23.389 22.453,23.205 C23.288,21.678 22.885,22.388 23.655,21.071 L38.441,21.071 z" fill="#000000"/>
      <path d="M42.5,1.5 C65.144,1.5 83.5,19.856 83.5,42.5 C83.5,65.144 65.144,83.5 42.5,83.5 C19.856,83.5 1.5,65.144 1.5,42.5 C1.5,19.856 19.856,1.5 42.5,1.5 z M39.817,16.077 L22.432,16.077 C22.032,16.078 21.637,16.174 21.282,16.358 C20.239,16.9 19.623,17.899 18.047,20.855 C17.943,21.05 17.838,21.249 17.731,21.454 C17.256,22.36 16.765,23.327 16.285,24.293 C16.118,24.632 15.963,24.945 15.826,25.227 C15.743,25.398 15.683,25.52 15.651,25.587 C15.488,25.925 15.403,26.296 15.403,26.671 L15.403,63.184 C15.403,64.564 16.521,65.681 17.9,65.681 L69.808,65.681 C71.189,65.681 72.308,64.56 72.305,63.179 L72.229,26.666 C72.227,25.289 71.11,24.175 69.733,24.174 L45.38,24.174 C44.643,22.495 45.03,23.365 44.219,21.565 C44.131,21.371 44.044,21.182 43.958,20.997 C42.736,18.364 42.149,17.251 41.391,16.636 C40.946,16.275 40.39,16.078 39.817,16.077 z M38.441,21.071 C39.059,22.295 38.727,21.62 39.428,23.099 C39.51,23.274 39.593,23.455 39.677,23.64 C40.076,24.514 40.492,25.453 40.9,26.393 C41.043,26.722 41.174,27.028 41.291,27.302 C41.361,27.465 41.41,27.581 41.435,27.641 C41.825,28.567 42.732,29.168 43.736,29.168 L67.241,29.168 L67.306,60.688 L20.397,60.688 L20.397,27.247 C20.603,26.828 20.482,27.073 20.759,26.513 C21.223,25.577 21.698,24.642 22.153,23.772 C22.255,23.578 22.355,23.389 22.453,23.205 C23.288,21.678 22.885,22.388 23.655,21.071 L38.441,21.071 z" fill-opacity="0" stroke="#000000" stroke-width="0.25"/>
    </g>
  </g>
</svg>
