<?xml version="1.0" encoding="UTF-8"?>
<!DOCTYPE svg PUBLIC "-//W3C//DTD SVG 1.1//EN" "http://www.w3.org/Graphics/SVG/1.1/DTD/svg11.dtd">
<svg version="1.1" xmlns="http://www.w3.org/2000/svg" xmlns:xlink="http://www.w3.org/1999/xlink" x="0" y="0" width="84" height="84" viewBox="0, 0, 84, 84">
  <g id="Background">
    <rect x="0" y="0" width="84" height="84" fill="#000000" fill-opacity="0"/>
  </g>
  <g id="Layer_1">
    <g>
      <path d="M44.61,1.553 C66.523,3.044 82.948,20.682 83.5,42.5 C83.5,65.144 65.144,83.5 42.5,83.5 C19.856,83.5 1.5,65.144 1.5,42.5 C1.5,19.856 19.856,1.5 42.5,1.5 L44.61,1.553 z M41.865,68.365 C39.886,68.365 38.282,69.979 38.282,71.971 C38.282,73.962 39.886,75.576 41.865,75.576 C43.844,75.576 45.448,73.962 45.448,71.971 C45.448,69.979 43.844,68.365 41.865,68.365 z M42.704,11.588 C38.509,11.813 36.036,11.867 32.19,13.94 C24.245,18.12 21.594,25.768 21.114,31.293 C21.005,32.552 21.775,32.736 23.981,32.845 C26.679,32.979 27.135,32.204 27.357,30.907 C28.013,27.079 29.392,22.59 35.125,19.52 C42.68,15.476 51.426,19.225 54.737,25.52 C57.593,30.951 57.497,40.667 48.748,45.268 C43.676,47.936 38.988,46.995 38.696,47.533 C38.405,48.071 38.496,51.473 38.496,51.473 L38.487,51.473 C38.487,51.473 38.449,63.037 38.475,63.8 C38.502,64.564 39.744,64.406 41.921,64.406 C44.098,64.406 45.366,64.397 45.413,63.726 C45.461,63.054 45.227,53.701 45.647,53.224 C46.31,52.472 49.736,51.963 51.561,50.77 C63.504,43.814 64.664,30.985 60.291,22.67 C56.442,16.174 50.257,12.238 42.705,11.588 z" fill="#000000"/>
      <path d="M44.61,1.553 C66.523,3.044 82.948,20.682 83.5,42.5 C83.5,65.144 65.144,83.5 42.5,83.5 C19.856,83.5 1.5,65.144 1.5,42.5 C1.5,19.856 19.856,1.5 42.5,1.5 L44.61,1.553 z M41.865,68.365 C39.886,68.365 38.282,69.979 38.282,71.971 C38.282,73.962 39.886,75.576 41.865,75.576 C43.844,75.576 45.448,73.962 45.448,71.971 C45.448,69.979 43.844,68.365 41.865,68.365 z M42.704,11.588 C38.509,11.813 36.036,11.867 32.19,13.94 C24.245,18.12 21.594,25.768 21.114,31.293 C21.005,32.552 21.775,32.736 23.981,32.845 C26.679,32.979 27.135,32.204 27.357,30.907 C28.013,27.079 29.392,22.59 35.125,19.52 C42.68,15.476 51.426,19.225 54.737,25.52 C57.593,30.951 57.497,40.667 48.748,45.268 C43.676,47.936 38.988,46.995 38.696,47.533 C38.405,48.071 38.496,51.473 38.496,51.473 L38.487,51.473 C38.487,51.473 38.449,63.037 38.475,63.8 C38.502,64.564 39.744,64.406 41.921,64.406 C44.098,64.406 45.366,64.397 45.413,63.726 C45.461,63.054 45.227,53.701 45.647,53.224 C46.31,52.472 49.736,51.963 51.561,50.77 C63.504,43.814 64.664,30.985 60.291,22.67 C56.442,16.174 50.257,12.238 42.705,11.588 z" fill-opacity="0" stroke="#000000" stroke-width="0.25"/>
    </g>
  </g>
</svg>
