<?xml version="1.0" encoding="UTF-8"?>
<!DOCTYPE svg PUBLIC "-//W3C//DTD SVG 1.1//EN" "http://www.w3.org/Graphics/SVG/1.1/DTD/svg11.dtd">
<svg version="1.1" xmlns="http://www.w3.org/2000/svg" xmlns:xlink="http://www.w3.org/1999/xlink" x="0" y="0" width="400" height="85" viewBox="0, 0, 400, 85">
  <g id="Background">
    <rect x="0" y="0" width="400" height="85" fill="#000000" fill-opacity="0"/>
  </g>
  <g id="Layer_1">
    <g>
      <path d="M9.141,11.746 C8.983,14.133 8.915,63.239 8.915,61.932 C8.915,70.575 14.647,84.319 32.441,84.431 C43.337,84.5 54.05,74.512 54.05,61.932 C54.05,60.7 53.918,49.198 43.357,42.975 C49.512,38.042 54.05,33.065 54.05,23.567 C54.05,10.003 42.929,1 31.482,1 C22.06,1 10.058,1 4.007,1 C2.382,1 1.256,1 1.132,3.99 C1.007,6.99 1.321,7.77 2.773,7.77 C5.632,7.77 24.207,7.77 31.482,7.77 C41.304,7.77 47.28,15.815 47.28,24.24 C47.28,35.365 36.116,39.365 31.482,39.364 C19.373,39.363 19.862,39.418 19.973,42.975 C20.098,46.99 19.373,46.135 31.482,46.135 C39.233,46.135 47.28,52.615 47.28,61.932 C47.28,72.615 37.983,77.729 33.358,77.729 C20.836,77.729 16.067,69.189 15.685,61.932 C15.303,54.675 15.685,17.383 15.685,12.633 C15.685,10.258 15.531,9.756 12.858,9.883 C10.184,10.01 9.299,9.359 9.141,11.746 z" fill="#000000"/>
      <path d="M9.141,11.746 C8.983,14.133 8.915,63.239 8.915,61.932 C8.915,70.575 14.647,84.319 32.441,84.431 C43.337,84.5 54.05,74.512 54.05,61.932 C54.05,60.7 53.918,49.198 43.357,42.975 C49.512,38.042 54.05,33.065 54.05,23.567 C54.05,10.003 42.929,1 31.482,1 C22.06,1 10.058,1 4.007,1 C2.382,1 1.256,1 1.132,3.99 C1.007,6.99 1.321,7.77 2.773,7.77 C5.632,7.77 24.207,7.77 31.482,7.77 C41.304,7.77 47.28,15.815 47.28,24.24 C47.28,35.365 36.116,39.365 31.482,39.364 C19.373,39.363 19.862,39.418 19.973,42.975 C20.098,46.99 19.373,46.135 31.482,46.135 C39.233,46.135 47.28,52.615 47.28,61.932 C47.28,72.615 37.983,77.729 33.358,77.729 C20.836,77.729 16.067,69.189 15.685,61.932 C15.303,54.675 15.685,17.383 15.685,12.633 C15.685,10.258 15.531,9.756 12.858,9.883 C10.184,10.01 9.299,9.359 9.141,11.746 z" fill-opacity="0" stroke="#000000" stroke-width="0.5"/>
    </g>
    <g>
      <path d="M56.42,40.756 C56.42,39.256 57.293,39.297 60.168,39.297 C62.293,39.297 63.779,39.131 63.779,40.756 C63.779,45.371 63.779,68.33 63.779,71.376 C63.779,78.829 75.308,79.579 75.308,71.376 C75.308,70.267 76.203,70.075 78.828,70.075 C81.547,70.075 82.667,70.512 82.667,71.376 C82.667,75.357 79.551,84.499 69.543,84.5 C61.238,84.5 56.42,77.45 56.42,71.376 C56.42,70.168 56.42,46.496 56.42,40.756 z" fill="#000000"/>
      <path d="M56.42,40.756 C56.42,39.256 57.293,39.297 60.168,39.297 C62.293,39.297 63.779,39.131 63.779,40.756 C63.779,45.371 63.779,68.33 63.779,71.376 C63.779,78.829 75.308,79.579 75.308,71.376 C75.308,70.267 76.203,70.075 78.828,70.075 C81.547,70.075 82.667,70.512 82.667,71.376 C82.667,75.357 79.551,84.499 69.543,84.5 C61.238,84.5 56.42,77.45 56.42,71.376 C56.42,70.168 56.42,46.496 56.42,40.756 z" fill-opacity="0" stroke="#000000" stroke-width="0.5"/>
    </g>
    <g>
      <path d="M132.02,2.459 C132.02,0.959 132.893,1 135.768,1 C137.893,1 139.379,0.834 139.379,2.459 C139.379,7.074 139.379,68.33 139.379,71.376 C139.379,78.829 150.908,79.579 150.908,71.376 C150.908,70.267 151.803,70.075 154.428,70.075 C157.147,70.075 158.267,70.512 158.267,71.376 C158.267,75.357 155.151,84.499 145.143,84.5 C136.838,84.5 132.02,77.45 132.02,71.376 C132.02,70.168 132.02,8.199 132.02,2.459 z" fill="#000000"/>
      <path d="M132.02,2.459 C132.02,0.959 132.893,1 135.768,1 C137.893,1 139.379,0.834 139.379,2.459 C139.379,7.074 139.379,68.33 139.379,71.376 C139.379,78.829 150.908,79.579 150.908,71.376 C150.908,70.267 151.803,70.075 154.428,70.075 C157.147,70.075 158.267,70.512 158.267,71.376 C158.267,75.357 155.151,84.499 145.143,84.5 C136.838,84.5 132.02,77.45 132.02,71.376 C132.02,70.168 132.02,8.199 132.02,2.459 z" fill-opacity="0" stroke="#000000" stroke-width="0.5"/>
    </g>
    <path d="M59.537,34.865 C57.539,34.865 55.92,33.245 55.92,31.248 C55.92,29.25 57.539,27.63 59.537,27.63 C61.534,27.63 63.154,29.25 63.154,31.248 C63.154,33.245 61.534,34.865 59.537,34.865 z" fill="#000000"/>
    <g>
      <path d="M207.62,40.688 C207.62,39.188 208.493,39.229 211.368,39.229 C213.493,39.229 214.979,39.063 214.979,40.688 C214.979,45.303 214.979,68.262 214.979,71.308 C214.979,78.761 226.508,79.511 226.508,71.308 C226.508,70.199 227.403,70.006 230.028,70.006 C232.747,70.006 233.867,70.444 233.867,71.308 C233.867,75.289 230.751,84.431 220.743,84.431 C212.438,84.432 207.62,77.381 207.62,71.308 C207.62,70.1 207.62,46.428 207.62,40.688 z" fill="#000000"/>
      <path d="M207.62,40.688 C207.62,39.188 208.493,39.229 211.368,39.229 C213.493,39.229 214.979,39.063 214.979,40.688 C214.979,45.303 214.979,68.262 214.979,71.308 C214.979,78.761 226.508,79.511 226.508,71.308 C226.508,70.199 227.403,70.006 230.028,70.006 C232.747,70.006 233.867,70.444 233.867,71.308 C233.867,75.289 230.751,84.431 220.743,84.431 C212.438,84.432 207.62,77.381 207.62,71.308 C207.62,70.1 207.62,46.428 207.62,40.688 z" fill-opacity="0" stroke="#000000" stroke-width="0.5"/>
    </g>
    <path d="M210.737,34.797 C208.739,34.797 207.12,33.177 207.12,31.179 C207.12,29.182 208.739,27.562 210.737,27.562 C212.734,27.562 214.354,29.182 214.354,31.179 C214.354,33.177 212.734,34.797 210.737,34.797 z" fill="#000000"/>
    <g>
      <path d="M298.37,40.688 C298.37,39.188 299.243,39.229 302.118,39.229 C304.243,39.229 305.729,39.063 305.729,40.688 C305.729,45.303 305.729,68.262 305.729,71.308 C305.729,78.761 317.258,79.511 317.258,71.308 C317.258,70.199 318.153,70.006 320.778,70.006 C323.497,70.006 324.617,70.444 324.617,71.308 C324.617,75.289 321.501,84.431 311.493,84.431 C303.188,84.432 298.37,77.381 298.37,71.308 C298.37,70.1 298.37,46.428 298.37,40.688 z" fill="#000000"/>
      <path d="M298.37,40.688 C298.37,39.188 299.243,39.229 302.118,39.229 C304.243,39.229 305.729,39.063 305.729,40.688 C305.729,45.303 305.729,68.262 305.729,71.308 C305.729,78.761 317.258,79.511 317.258,71.308 C317.258,70.199 318.153,70.006 320.778,70.006 C323.497,70.006 324.617,70.444 324.617,71.308 C324.617,75.289 321.501,84.431 311.493,84.431 C303.188,84.432 298.37,77.381 298.37,71.308 C298.37,70.1 298.37,46.428 298.37,40.688 z" fill-opacity="0" stroke="#000000" stroke-width="0.5"/>
    </g>
    <path d="M301.487,34.797 C299.489,34.797 297.87,33.177 297.87,31.179 C297.87,29.182 299.489,27.562 301.487,27.562 C303.484,27.562 305.104,29.182 305.104,31.179 C305.104,33.177 303.484,34.797 301.487,34.797 z" fill="#000000"/>
    <g>
      <path d="M84.18,2.863 C84.022,5.25 83.836,60.63 83.954,61.932 C84.225,64.937 85.181,84.452 107.48,84.432 C117.189,84.423 123.627,78.272 127.346,70.866 C130.875,63.837 129.314,50.522 120.955,44.281 C117.099,41.402 112.679,39.365 106.521,39.365 C94.411,39.365 94.901,39.418 95.011,42.976 C95.136,46.991 94.411,46.135 106.521,46.135 C114.272,46.135 122.319,52.616 122.319,61.932 C122.319,72.616 113.022,77.73 108.397,77.73 C95.875,77.73 91.106,69.19 90.724,61.932 C90.342,54.675 90.724,8.5 90.724,3.75 C90.724,1.375 90.57,0.873 87.897,1 C85.223,1.127 84.338,0.476 84.18,2.863 z" fill="#000000"/>
      <path d="M84.18,2.863 C84.022,5.25 83.836,60.63 83.954,61.932 C84.225,64.937 85.181,84.452 107.48,84.432 C117.189,84.423 123.627,78.272 127.346,70.866 C130.875,63.837 129.314,50.522 120.955,44.281 C117.099,41.402 112.679,39.365 106.521,39.365 C94.411,39.365 94.901,39.418 95.011,42.976 C95.136,46.991 94.411,46.135 106.521,46.135 C114.272,46.135 122.319,52.616 122.319,61.932 C122.319,72.616 113.022,77.73 108.397,77.73 C95.875,77.73 91.106,69.19 90.724,61.932 C90.342,54.675 90.724,8.5 90.724,3.75 C90.724,1.375 90.57,0.873 87.897,1 C85.223,1.127 84.338,0.476 84.18,2.863 z" fill-opacity="0" stroke="#000000" stroke-width="0.5"/>
    </g>
    <g>
      <path d="M172.209,64.068 C175.312,64.068 198.843,64.068 201.146,64.068 C204.186,64.068 204.03,63.032 204.03,59.25 C204.03,53.218 197.155,39.365 181.618,39.365 C166.628,39.364 159.051,51.742 159.051,61.932 C159.051,72.773 167.972,84.501 181.618,84.5 C191.356,84.5 197.762,78.496 201.012,73.434 C201.752,72.28 201.106,71.715 199.043,70.496 C196.521,69.006 195.692,69.52 194.824,70.653 C192.262,73.996 188.672,77.61 181.618,77.662 C172.324,77.729 165.821,69.715 165.821,62 C165.821,55.345 170.896,46.202 181.618,46.202 C187.834,46.202 194.124,50.266 196.061,55.828 C196.791,57.925 193.712,57.703 191.587,57.703 C189.462,57.703 174.333,57.709 172.334,57.77 C170.459,57.828 170.584,59.902 170.584,61.133 C170.584,63.32 170.584,64.068 172.209,64.068 z" fill="#000000"/>
      <path d="M172.209,64.068 C175.312,64.068 198.843,64.068 201.146,64.068 C204.186,64.068 204.03,63.032 204.03,59.25 C204.03,53.218 197.155,39.365 181.618,39.365 C166.628,39.364 159.051,51.742 159.051,61.932 C159.051,72.773 167.972,84.501 181.618,84.5 C191.356,84.5 197.762,78.496 201.012,73.434 C201.752,72.28 201.106,71.715 199.043,70.496 C196.521,69.006 195.692,69.52 194.824,70.653 C192.262,73.996 188.672,77.61 181.618,77.662 C172.324,77.729 165.821,69.715 165.821,62 C165.821,55.345 170.896,46.202 181.618,46.202 C187.834,46.202 194.124,50.266 196.061,55.828 C196.791,57.925 193.712,57.703 191.587,57.703 C189.462,57.703 174.333,57.709 172.334,57.77 C170.459,57.828 170.584,59.902 170.584,61.133 C170.584,63.32 170.584,64.068 172.209,64.068 z" fill-opacity="0" stroke="#000000" stroke-width="0.5"/>
    </g>
    <g>
      <path d="M366.398,52.343 C367.531,51.612 369.473,50.903 368.57,49.639 C366.486,46.723 361.111,39.297 349.696,39.365 C334.706,39.454 327.128,51.742 327.128,61.932 C327.128,72.773 336.049,84.501 349.696,84.5 C359.433,84.5 365.839,78.496 369.089,73.434 C369.83,72.28 369.183,71.715 367.121,70.496 C364.598,69.006 363.77,69.52 362.902,70.653 C360.339,73.996 356.749,77.61 349.696,77.661 C340.402,77.729 333.898,69.715 333.898,62 C333.898,55.345 338.896,46.067 349.618,46.067 C355.834,46.067 360.267,49.69 362.679,52.905 C363.543,54.057 365.264,53.073 366.398,52.343 z" fill="#000000"/>
      <path d="M366.398,52.343 C367.531,51.612 369.473,50.903 368.57,49.639 C366.486,46.723 361.111,39.297 349.696,39.365 C334.706,39.454 327.128,51.742 327.128,61.932 C327.128,72.773 336.049,84.501 349.696,84.5 C359.433,84.5 365.839,78.496 369.089,73.434 C369.83,72.28 369.183,71.715 367.121,70.496 C364.598,69.006 363.77,69.52 362.902,70.653 C360.339,73.996 356.749,77.61 349.696,77.661 C340.402,77.729 333.898,69.715 333.898,62 C333.898,55.345 338.896,46.067 349.618,46.067 C355.834,46.067 360.267,49.69 362.679,52.905 C363.543,54.057 365.264,53.073 366.398,52.343 z" fill-opacity="0" stroke="#000000" stroke-width="0.5"/>
    </g>
    <g>
      <path d="M263,52.488 C263,47.902 259.327,39.365 249.876,39.364 C242.47,39.364 236.753,46.025 236.753,52.488 C236.753,58.951 241.801,65.611 249.876,65.611 C254.827,65.611 255.641,69.787 255.641,71.376 C255.641,72.965 254.405,77.141 249.876,77.141 C245.78,77.141 244.112,73.662 244.112,71.376 C244.112,69.862 242.999,69.675 240.374,69.675 C238.374,69.675 236.753,69.862 236.753,71.376 C236.753,76.093 240.436,84.499 249.876,84.5 C259.436,84.5 263,76.25 263,71.376 C263,66.343 259.28,58.252 249.876,58.252 C246.452,58.252 244.112,55.738 244.112,52.488 C244.112,49.238 246.967,46.723 249.876,46.723 C252.327,46.723 255.641,48.843 255.641,52.488 C255.641,53.812 256.405,54.117 259.592,54.156 C262.186,54.187 263,54.218 263,52.488 z" fill="#000000"/>
      <path d="M263,52.488 C263,47.902 259.327,39.365 249.876,39.364 C242.47,39.364 236.753,46.025 236.753,52.488 C236.753,58.951 241.801,65.611 249.876,65.611 C254.827,65.611 255.641,69.787 255.641,71.376 C255.641,72.965 254.405,77.141 249.876,77.141 C245.78,77.141 244.112,73.662 244.112,71.376 C244.112,69.862 242.999,69.675 240.374,69.675 C238.374,69.675 236.753,69.862 236.753,71.376 C236.753,76.093 240.436,84.499 249.876,84.5 C259.436,84.5 263,76.25 263,71.376 C263,66.343 259.28,58.252 249.876,58.252 C246.452,58.252 244.112,55.738 244.112,52.488 C244.112,49.238 246.967,46.723 249.876,46.723 C252.327,46.723 255.641,48.843 255.641,52.488 C255.641,53.812 256.405,54.117 259.592,54.156 C262.186,54.187 263,54.218 263,52.488 z" fill-opacity="0" stroke="#000000" stroke-width="0.5"/>
    </g>
    <g>
      <path d="M398.5,52.488 C398.5,47.902 394.827,39.365 385.376,39.364 C377.97,39.364 372.253,46.025 372.253,52.488 C372.253,58.951 377.301,65.611 385.376,65.611 C390.327,65.611 391.141,69.787 391.141,71.376 C391.141,72.965 389.905,77.141 385.376,77.141 C381.28,77.141 379.612,73.662 379.612,71.376 C379.612,69.862 378.499,69.675 375.874,69.675 C373.874,69.675 372.253,69.862 372.253,71.376 C372.253,76.093 375.936,84.499 385.376,84.5 C394.936,84.5 398.5,76.25 398.5,71.376 C398.5,66.343 394.78,58.252 385.376,58.252 C381.952,58.252 379.612,55.738 379.612,52.488 C379.612,49.238 382.467,46.723 385.376,46.723 C387.827,46.723 391.141,48.843 391.141,52.488 C391.141,53.812 391.905,54.117 395.092,54.156 C397.686,54.187 398.5,54.218 398.5,52.488 z" fill="#000000"/>
      <path d="M398.5,52.488 C398.5,47.902 394.827,39.365 385.376,39.364 C377.97,39.364 372.253,46.025 372.253,52.488 C372.253,58.951 377.301,65.611 385.376,65.611 C390.327,65.611 391.141,69.787 391.141,71.376 C391.141,72.965 389.905,77.141 385.376,77.141 C381.28,77.141 379.612,73.662 379.612,71.376 C379.612,69.862 378.499,69.675 375.874,69.675 C373.874,69.675 372.253,69.862 372.253,71.376 C372.253,76.093 375.936,84.499 385.376,84.5 C394.936,84.5 398.5,76.25 398.5,71.376 C398.5,66.343 394.78,58.252 385.376,58.252 C381.952,58.252 379.612,55.738 379.612,52.488 C379.612,49.238 382.467,46.723 385.376,46.723 C387.827,46.723 391.141,48.843 391.141,52.488 C391.141,53.812 391.905,54.117 395.092,54.156 C397.686,54.187 398.5,54.218 398.5,52.488 z" fill-opacity="0" stroke="#000000" stroke-width="0.5"/>
    </g>
    <g>
      <path d="M279.613,39.375 C280.769,39.353 288.562,39.369 291.562,39.366 C293.446,39.365 293.432,41.072 293.432,42.985 C293.432,45.322 293.439,46.723 291.562,46.726 C289.062,46.729 280.457,46.739 279.613,46.733 C278.769,46.728 278.405,45.749 278.437,42.975 C278.457,41.155 278.457,39.397 279.613,39.375 z" fill="#000000"/>
      <path d="M279.613,39.375 C280.769,39.353 288.562,39.369 291.562,39.366 C293.446,39.365 293.432,41.072 293.432,42.985 C293.432,45.322 293.439,46.723 291.562,46.726 C289.062,46.729 280.457,46.739 279.613,46.733 C278.769,46.728 278.405,45.749 278.437,42.975 C278.457,41.155 278.457,39.397 279.613,39.375 z" fill-opacity="0" stroke="#000000" stroke-width="0.5"/>
    </g>
    <g>
      <path d="M267.199,29.517 C267.199,28.017 268.072,28.058 270.947,28.058 C273.072,28.058 274.558,27.892 274.558,29.517 C274.558,34.132 274.558,68.262 274.558,71.308 C274.558,78.761 286.087,79.511 286.087,71.308 C286.087,70.199 286.982,70.006 289.607,70.006 C292.326,70.006 293.446,70.444 293.446,71.308 C293.446,75.289 290.33,84.431 280.322,84.431 C272.017,84.432 267.199,77.381 267.199,71.308 C267.199,70.1 267.199,35.257 267.199,29.517 z" fill="#000000"/>
      <path d="M267.199,29.517 C267.199,28.017 268.072,28.058 270.947,28.058 C273.072,28.058 274.558,27.892 274.558,29.517 C274.558,34.132 274.558,68.262 274.558,71.308 C274.558,78.761 286.087,79.511 286.087,71.308 C286.087,70.199 286.982,70.006 289.607,70.006 C292.326,70.006 293.446,70.444 293.446,71.308 C293.446,75.289 290.33,84.431 280.322,84.431 C272.017,84.432 267.199,77.381 267.199,71.308 C267.199,70.1 267.199,35.257 267.199,29.517 z" fill-opacity="0" stroke="#000000" stroke-width="0.5"/>
    </g>
  </g>
</svg>
