<?xml version="1.0" encoding="UTF-8"?>
<!DOCTYPE svg PUBLIC "-//W3C//DTD SVG 1.1//EN" "http://www.w3.org/Graphics/SVG/1.1/DTD/svg11.dtd">
<svg version="1.1" xmlns="http://www.w3.org/2000/svg" xmlns:xlink="http://www.w3.org/1999/xlink" x="0" y="0" width="274" height="392" viewBox="0, 0, 274, 392">
  <g id="Background">
    <rect x="0" y="0" width="274" height="392" fill="#000000" fill-opacity="0"/>
  </g>
  <g id="Layer_1">
    <g>
      <path d="M272.494,1.164 L272.494,356.361 L64.585,356.361 L64.585,391.164 L41.767,378.098 L18.949,391.164 L18.949,356.361 L1.253,356.361 L1.253,1.164 L272.494,1.164 z M144.593,97.023 L140.062,97.026 L135.527,97.023 L135.527,97.03 L113.885,97.045 C113.885,97.045 108.212,101.928 113.885,108.477 C117.06,108.477 118.012,108.517 118.012,108.517 C118.012,108.517 118.302,183.855 117.577,204.385 C114.396,209.895 88.861,254.906 74.701,280.423 C63.526,300.563 53.439,311.577 74.701,328.337 C95.094,328.323 115.487,328.328 135.879,328.366 L135.88,328.382 C137.279,328.381 138.678,328.377 140.077,328.374 C141.476,328.377 142.875,328.381 144.274,328.382 L144.274,328.367 C164.667,328.334 185.06,328.315 205.453,328.337 C226.716,311.577 216.629,300.563 205.453,280.423 C191.294,254.906 165.759,209.895 162.578,204.385 C161.853,183.855 162.143,108.517 162.143,108.517 C162.143,108.517 163.095,108.477 166.27,108.477 C171.944,101.928 166.27,97.045 166.269,97.044 L144.593,97.03 L144.593,97.023 z M147.843,70.208 L147.843,70.208 C141.419,70.208 136.211,75.416 136.211,81.841 C136.211,88.265 141.419,93.473 147.843,93.473 C154.268,93.473 159.476,88.265 159.476,81.841 C159.476,75.416 154.268,70.208 147.843,70.208 z M129.328,55.535 L129.328,55.536 C124.893,55.536 121.297,59.132 121.297,63.567 C121.297,68.002 124.893,71.598 129.328,71.598 C133.763,71.598 137.359,68.002 137.359,63.567 C137.359,59.132 133.763,55.536 129.328,55.535 z M142.73,41.555 L142.73,41.555 C139.764,41.555 137.359,43.96 137.359,46.927 C137.359,49.893 139.764,52.298 142.73,52.298 C145.697,52.298 148.102,49.893 148.102,46.927 C148.102,43.96 145.697,41.555 142.73,41.555 z" fill="#000000"/>
      <path d="M272.494,1.164 L272.494,356.361 L64.585,356.361 L64.585,391.164 L41.767,378.098 L18.949,391.164 L18.949,356.361 L1.253,356.361 L1.253,1.164 L272.494,1.164 z M144.593,97.023 L140.062,97.026 L135.527,97.023 L135.527,97.03 L113.885,97.045 C113.885,97.045 108.212,101.928 113.885,108.477 C117.06,108.477 118.012,108.517 118.012,108.517 C118.012,108.517 118.302,183.855 117.577,204.385 C114.396,209.895 88.861,254.906 74.701,280.423 C63.526,300.563 53.439,311.577 74.701,328.337 C95.094,328.323 115.487,328.328 135.879,328.366 L135.88,328.382 C137.279,328.381 138.678,328.377 140.077,328.374 C141.476,328.377 142.875,328.381 144.274,328.382 L144.274,328.367 C164.667,328.334 185.06,328.315 205.453,328.337 C226.716,311.577 216.629,300.563 205.453,280.423 C191.294,254.906 165.759,209.895 162.578,204.385 C161.853,183.855 162.143,108.517 162.143,108.517 C162.143,108.517 163.095,108.477 166.27,108.477 C171.944,101.928 166.27,97.045 166.269,97.044 L144.593,97.03 L144.593,97.023 z M147.843,70.208 L147.843,70.208 C141.419,70.208 136.211,75.416 136.211,81.841 C136.211,88.265 141.419,93.473 147.843,93.473 C154.268,93.473 159.476,88.265 159.476,81.841 C159.476,75.416 154.268,70.208 147.843,70.208 z M129.328,55.535 L129.328,55.536 C124.893,55.536 121.297,59.132 121.297,63.567 C121.297,68.002 124.893,71.598 129.328,71.598 C133.763,71.598 137.359,68.002 137.359,63.567 C137.359,59.132 133.763,55.536 129.328,55.535 z M142.73,41.555 L142.73,41.555 C139.764,41.555 137.359,43.96 137.359,46.927 C137.359,49.893 139.764,52.298 142.73,52.298 C145.697,52.298 148.102,49.893 148.102,46.927 C148.102,43.96 145.697,41.555 142.73,41.555 z" fill-opacity="0" stroke="#000000" stroke-width="0.5"/>
    </g>
  </g>
</svg>
