<?xml version="1.0" encoding="UTF-8"?>
<!DOCTYPE svg PUBLIC "-//W3C//DTD SVG 1.1//EN" "http://www.w3.org/Graphics/SVG/1.1/DTD/svg11.dtd">
<svg version="1.1" xmlns="http://www.w3.org/2000/svg" xmlns:xlink="http://www.w3.org/1999/xlink" x="0" y="0" width="274" height="392" viewBox="0, 0, 274, 392">
  <g id="Background">
    <rect x="0" y="0" width="274" height="392" fill="#FFFFFF"/>
  </g>
  <g id="Background"/>
  <g id="Layer_1">
    <path d="M272.494,23.146 L272.494,344.753 L72.295,344.753 L72.295,391.164 L45.556,378.098 L18.949,391.164 L18.949,344.753 L1.253,344.753 L1.253,23.146 L272.494,23.146 z M144.593,97.023 L140.062,97.026 L135.527,97.023 L135.527,97.03 L113.885,97.045 C113.885,97.045 108.212,101.928 113.885,108.477 C117.06,108.477 118.012,108.517 118.012,108.517 C118.012,108.517 118.302,183.855 117.577,204.385 C114.396,209.895 88.861,254.906 74.701,280.423 C63.526,300.563 53.439,311.577 74.701,328.337 C95.094,328.323 115.487,328.328 135.879,328.366 L135.88,328.382 C137.279,328.381 138.678,328.377 140.077,328.374 C141.476,328.377 142.875,328.381 144.274,328.382 L144.274,328.367 C164.667,328.334 185.06,328.315 205.453,328.337 C226.716,311.577 216.629,300.563 205.453,280.423 C191.294,254.906 165.759,209.895 162.578,204.385 C161.853,183.855 162.143,108.517 162.143,108.517 C162.143,108.517 163.095,108.477 166.27,108.477 C171.944,101.928 166.27,97.045 166.269,97.044 L144.593,97.03 L144.593,97.023 z M147.843,70.208 L147.843,70.208 C141.419,70.208 136.211,75.416 136.211,81.841 C136.211,88.265 141.419,93.473 147.843,93.473 C154.268,93.473 159.476,88.265 159.476,81.841 C159.476,75.416 154.268,70.208 147.843,70.208 z M129.328,55.535 L129.328,55.536 C124.893,55.536 121.297,59.132 121.297,63.567 C121.297,68.002 124.893,71.598 129.328,71.598 C133.763,71.598 137.359,68.002 137.359,63.567 C137.359,59.132 133.763,55.536 129.328,55.535 z M142.73,41.555 L142.73,41.555 C139.764,41.555 137.359,43.96 137.359,46.927 C137.359,49.893 139.764,52.298 142.73,52.298 C145.697,52.298 148.102,49.893 148.102,46.927 C148.102,43.96 145.697,41.555 142.73,41.555 z" fill="#000000"/>
    <path d="M18.252,389.984 L21.888,389.984 L21.888,386.437 L18.252,386.437 L18.252,389.984 z" fill="#FFFFFF"/>
    <path d="M17.283,391.164 L77.523,391.164 L77.523,389.073 L17.283,389.073 L17.283,391.164 z" fill="#FFFFFF"/>
    <path d="M252.618,1.464 L252.618,1.464 C263.595,1.464 272.494,10.363 272.494,21.341 L272.494,40.649 C272.494,51.626 263.595,60.525 252.618,60.525 L252.618,60.525 C241.64,60.525 232.741,51.626 232.741,40.649 L232.741,21.341 C232.741,10.363 241.64,1.464 252.618,1.464 z" fill="#000000"/>
    <path d="M14.511,1.464 L14.511,1.464 C21.833,1.464 27.768,7.4 27.768,14.722 L27.768,27.601 C27.768,34.923 21.833,40.859 14.511,40.859 L14.511,40.859 C7.189,40.859 1.253,34.923 1.253,27.601 L1.253,14.722 C1.253,7.4 7.189,1.464 14.511,1.464 z" fill="#000000"/>
    <path d="M15.254,1.464 L254,1.464 L254,26.48 L15.254,26.48 L15.254,1.464 z" fill="#000000"/>
    <path d="M252.618,306.272 L252.618,306.272 C263.595,306.272 272.494,315.171 272.494,326.149 L272.494,345.457 C272.494,356.434 263.595,365.333 252.618,365.333 L252.618,365.333 C241.64,365.333 232.741,356.434 232.741,345.457 L232.741,326.149 C232.741,315.171 241.64,306.272 252.618,306.272 z" fill="#000000"/>
    <path d="M14.511,325.939 L14.511,325.939 C21.833,325.939 27.768,331.875 27.768,339.197 L27.768,352.076 C27.768,359.398 21.833,365.333 14.511,365.333 L14.511,365.333 C7.189,365.333 1.253,359.398 1.253,352.076 L1.253,339.197 C1.253,331.875 7.189,325.939 14.511,325.939 z" fill="#000000"/>
    <path d="M14.065,340.318 L252.81,340.318 L252.81,365.333 L14.065,365.333 L14.065,340.318 z" fill="#000000"/>
    <path d="M21.85,389.414 C20.246,389.414 18.945,388.082 18.945,386.438 C18.945,384.795 20.246,383.462 21.85,383.462 C23.454,383.462 24.754,384.795 24.754,386.438 C24.754,388.082 23.454,389.414 21.85,389.414 z" fill="#000000"/>
    <path d="M69.507,389.984 L73.143,389.984 L73.143,386.437 L69.507,386.437 L69.507,389.984 z" fill="#FFFFFF"/>
    <path d="M69.391,389.414 C67.787,389.414 66.487,388.082 66.487,386.438 C66.487,384.795 67.787,383.462 69.391,383.462 C70.995,383.462 72.296,384.795 72.296,386.438 C72.296,388.082 70.995,389.414 69.391,389.414 z" fill="#000000"/>
  </g>
</svg>
