<?xml version="1.0" encoding="UTF-8"?>
<!DOCTYPE svg PUBLIC "-//W3C//DTD SVG 1.1//EN" "http://www.w3.org/Graphics/SVG/1.1/DTD/svg11.dtd">
<svg version="1.1" xmlns="http://www.w3.org/2000/svg" xmlns:xlink="http://www.w3.org/1999/xlink" x="0" y="0" width="84" height="84" viewBox="0, 0, 84, 84">
  <g id="Background">
    <rect x="0" y="0" width="84" height="84" fill="#000000" fill-opacity="0"/>
  </g>
  <g id="Layer_1">
    <g>
      <path d="M42.5,1.5 C65.144,1.5 83.5,19.856 83.5,42.5 C83.5,65.144 65.144,83.5 42.5,83.5 C19.856,83.5 1.5,65.144 1.5,42.5 C1.5,19.856 19.856,1.5 42.5,1.5 z M43.255,17.28 L43.255,17.281 C40.411,17.347 39.149,19.873 37.81,25.022 C36.978,28.219 36.215,32.336 35.32,38.093 C34.756,41.817 34.205,45.544 33.62,49.265 C33.285,47.847 32.997,46.418 32.699,44.992 C32.62,44.611 32.62,44.611 32.541,44.229 C32.462,43.848 32.43,43.692 32.383,43.467 C32.263,42.891 32.163,42.41 32.066,41.955 C31.428,38.948 30.945,36.971 30.435,35.443 C30.096,34.426 29.75,33.63 29.34,33.007 C28.543,31.796 27.388,31.025 25.825,31.396 C23.225,32.014 22.226,33.537 20.869,37.102 C20.794,37.299 20.794,37.299 20.72,37.491 C20.427,38.219 20.026,39.402 19.51,39.97 L11.071,39.97 C9.692,39.97 8.575,41.088 8.574,42.467 C8.575,43.846 9.692,44.964 11.071,44.964 L20.766,44.964 C21.662,44.874 22.607,44.516 22.949,43.594 C24.181,42.437 24.78,40.806 25.386,39.272 C25.462,39.073 25.462,39.073 25.536,38.879 C25.847,38.083 25.704,38.422 25.952,37.856 C26.465,39.541 26.797,41.276 27.181,42.993 C27.276,43.439 27.375,43.913 27.494,44.483 C27.54,44.706 27.572,44.861 27.651,45.241 C27.73,45.622 27.73,45.622 27.809,46.005 C28.654,50.084 29.115,52.127 29.675,54.045 C30.68,57.486 31.534,59.17 33.577,59.612 C35.173,59.957 36.098,59.147 36.711,57.999 C36.948,57.556 37.14,57.023 37.328,56.351 C37.621,55.304 37.918,53.851 38.256,51.881 C38.659,49.529 40.214,39.125 40.255,38.859 C41.125,33.258 41.864,29.271 42.643,26.279 C43.012,24.939 42.838,25.484 43.126,24.633 C43.444,25.942 43.279,25.199 43.592,26.867 C44.185,30.289 44.672,34.757 45.235,41.407 C45.368,42.971 45.851,48.914 45.965,50.262 C46.324,54.491 46.608,57.265 46.924,59.355 C47.118,60.642 47.321,61.639 47.558,62.394 C48.09,64.09 48.754,65.113 50.582,65.113 C52.061,65.113 52.864,64.297 53.532,63.044 C53.869,62.411 54.182,61.596 54.502,60.566 C55.025,58.879 55.574,56.588 56.208,53.548 C56.544,51.933 56.885,50.204 57.342,47.821 C57.469,47.158 57.927,44.763 57.896,44.923 C58.115,43.776 58.278,42.932 58.435,42.13 C58.843,40.063 58.62,41.171 59.109,38.805 C59.477,39.864 59.86,40.922 60.371,41.922 C61.147,43.233 62.032,44.717 63.712,44.905 C63.758,44.925 63.724,44.912 63.82,44.922 L64.036,44.956 L64.037,44.944 L64.234,44.964 L73.928,44.964 C75.307,44.964 76.425,43.846 76.425,42.467 C76.425,41.088 75.307,39.97 73.928,39.97 L64.997,39.97 L64.82,39.654 C64.47,38.967 64.126,38.065 63.582,36.465 C63.553,36.38 63.268,35.537 63.183,35.29 C63.028,34.834 62.899,34.466 62.773,34.123 C61.776,31.392 61.107,30.195 59.41,29.696 C57.904,29.253 56.907,29.961 56.238,30.995 C55.983,31.391 55.776,31.857 55.571,32.44 C55.261,33.323 54.938,34.541 54.573,36.154 C54.268,37.499 53.939,39.098 53.533,41.172 C53.375,41.982 53.211,42.832 52.991,43.985 C53.021,43.827 52.565,46.219 52.438,46.88 C51.985,49.24 51.648,50.946 51.319,52.529 L51.222,52.98 C51.023,50.827 51.117,51.874 50.941,49.84 C50.828,48.504 50.345,42.561 50.211,40.986 C49.636,34.196 49.138,29.621 48.512,26.013 C48.121,23.756 47.692,21.993 47.187,20.689 C46.368,18.573 45.255,17.234 43.255,17.28 z" fill="#000000"/>
      <path d="M42.5,1.5 C65.144,1.5 83.5,19.856 83.5,42.5 C83.5,65.144 65.144,83.5 42.5,83.5 C19.856,83.5 1.5,65.144 1.5,42.5 C1.5,19.856 19.856,1.5 42.5,1.5 z M43.255,17.28 L43.255,17.281 C40.411,17.347 39.149,19.873 37.81,25.022 C36.978,28.219 36.215,32.336 35.32,38.093 C34.756,41.817 34.205,45.544 33.62,49.265 C33.285,47.847 32.997,46.418 32.699,44.992 C32.62,44.611 32.62,44.611 32.541,44.229 C32.462,43.848 32.43,43.692 32.383,43.467 C32.263,42.891 32.163,42.41 32.066,41.955 C31.428,38.948 30.945,36.971 30.435,35.443 C30.096,34.426 29.75,33.63 29.34,33.007 C28.543,31.796 27.388,31.025 25.825,31.396 C23.225,32.014 22.226,33.537 20.869,37.102 C20.794,37.299 20.794,37.299 20.72,37.491 C20.427,38.219 20.026,39.402 19.51,39.97 L11.071,39.97 C9.692,39.97 8.575,41.088 8.574,42.467 C8.575,43.846 9.692,44.964 11.071,44.964 L20.766,44.964 C21.662,44.874 22.607,44.516 22.949,43.594 C24.181,42.437 24.78,40.806 25.386,39.272 C25.462,39.073 25.462,39.073 25.536,38.879 C25.847,38.083 25.704,38.422 25.952,37.856 C26.465,39.541 26.797,41.276 27.181,42.993 C27.276,43.439 27.375,43.913 27.494,44.483 C27.54,44.706 27.572,44.861 27.651,45.241 C27.73,45.622 27.73,45.622 27.809,46.005 C28.654,50.084 29.115,52.127 29.675,54.045 C30.68,57.486 31.534,59.17 33.577,59.612 C35.173,59.957 36.098,59.147 36.711,57.999 C36.948,57.556 37.14,57.023 37.328,56.351 C37.621,55.304 37.918,53.851 38.256,51.881 C38.659,49.529 40.214,39.125 40.255,38.859 C41.125,33.258 41.864,29.271 42.643,26.279 C43.012,24.939 42.838,25.484 43.126,24.633 C43.444,25.942 43.279,25.199 43.592,26.867 C44.185,30.289 44.672,34.757 45.235,41.407 C45.368,42.971 45.851,48.914 45.965,50.262 C46.324,54.491 46.608,57.265 46.924,59.355 C47.118,60.642 47.321,61.639 47.558,62.394 C48.09,64.09 48.754,65.113 50.582,65.113 C52.061,65.113 52.864,64.297 53.532,63.044 C53.869,62.411 54.182,61.596 54.502,60.566 C55.025,58.879 55.574,56.588 56.208,53.548 C56.544,51.933 56.885,50.204 57.342,47.821 C57.469,47.158 57.927,44.763 57.896,44.923 C58.115,43.776 58.278,42.932 58.435,42.13 C58.843,40.063 58.62,41.171 59.109,38.805 C59.477,39.864 59.86,40.922 60.371,41.922 C61.147,43.233 62.032,44.717 63.712,44.905 C63.758,44.925 63.724,44.912 63.82,44.922 L64.036,44.956 L64.037,44.944 L64.234,44.964 L73.928,44.964 C75.307,44.964 76.425,43.846 76.425,42.467 C76.425,41.088 75.307,39.97 73.928,39.97 L64.997,39.97 L64.82,39.654 C64.47,38.967 64.126,38.065 63.582,36.465 C63.553,36.38 63.268,35.537 63.183,35.29 C63.028,34.834 62.899,34.466 62.773,34.123 C61.776,31.392 61.107,30.195 59.41,29.696 C57.904,29.253 56.907,29.961 56.238,30.995 C55.983,31.391 55.776,31.857 55.571,32.44 C55.261,33.323 54.938,34.541 54.573,36.154 C54.268,37.499 53.939,39.098 53.533,41.172 C53.375,41.982 53.211,42.832 52.991,43.985 C53.021,43.827 52.565,46.219 52.438,46.88 C51.985,49.24 51.648,50.946 51.319,52.529 L51.222,52.98 C51.023,50.827 51.117,51.874 50.941,49.84 C50.828,48.504 50.345,42.561 50.211,40.986 C49.636,34.196 49.138,29.621 48.512,26.013 C48.121,23.756 47.692,21.993 47.187,20.689 C46.368,18.573 45.255,17.234 43.255,17.28 z" fill-opacity="0" stroke="#000000" stroke-width="0.25"/>
    </g>
  </g>
</svg>
