<?xml version="1.0" encoding="UTF-8"?>
<!DOCTYPE svg PUBLIC "-//W3C//DTD SVG 1.1//EN" "http://www.w3.org/Graphics/SVG/1.1/DTD/svg11.dtd">
<svg version="1.1" xmlns="http://www.w3.org/2000/svg" xmlns:xlink="http://www.w3.org/1999/xlink" x="0" y="0" width="84" height="84" viewBox="0, 0, 84, 84">
  <g id="Background">
    <rect x="0" y="0" width="84" height="84" fill="#000000" fill-opacity="0"/>
  </g>
  <g id="Layer_1">
    <g>
      <path d="M42.499,1.5 C65.144,1.5 83.5,19.857 83.5,42.5 C83.5,65.144 65.144,83.5 42.5,83.5 C19.856,83.5 1.5,65.144 1.5,42.5 C1.5,19.857 19.856,1.5 42.5,1.5 L42.499,1.5 z M48.793,15.258 C47.869,15.206 22.012,15.26 22.012,15.26 C20.631,15.256 19.509,16.375 19.508,17.757 L19.508,65.935 C19.509,67.315 20.629,68.434 22.01,68.431 L64.049,68.36 C65.43,68.358 66.547,67.235 66.542,65.854 L66.424,33.201 C66.3,31.816 65.906,31.332 65.565,30.912 C65.565,30.912 51.161,16.406 50.756,15.993 C50.351,15.58 49.717,15.311 48.793,15.258 z M24.502,20.26 L46.297,20.319 L46.296,26.92 L45.906,26.881 L30.292,26.881 C28.913,26.881 27.795,27.999 27.795,29.378 C27.795,30.757 28.913,31.875 30.292,31.875 L45.906,31.875 L46.296,31.835 L46.296,32.391 C46.297,33.763 47.402,34.877 48.772,34.889 L61.437,34.997 L61.539,63.371 L24.502,63.433 L24.502,20.26 z M55.41,55.261 L30.292,55.261 C28.913,55.261 27.795,56.379 27.795,57.758 C27.795,59.137 28.913,60.255 30.292,60.255 L55.41,60.254 C56.79,60.255 57.907,59.137 57.907,57.758 C57.907,56.379 56.79,55.261 55.411,55.261 L55.41,55.261 z M55.41,46.147 L30.292,46.147 C28.913,46.147 27.795,47.265 27.795,48.644 C27.795,50.023 28.913,51.141 30.292,51.141 L55.41,51.141 C56.79,51.141 57.907,50.023 57.907,48.644 C57.907,47.265 56.79,46.147 55.411,46.147 L55.41,46.147 z M55.41,36.913 L30.292,36.913 C28.913,36.913 27.795,38.031 27.795,39.41 C27.795,40.789 28.913,41.907 30.292,41.906 L55.41,41.906 C56.79,41.907 57.907,40.789 57.907,39.41 C57.907,38.031 56.79,36.913 55.41,36.913 L55.41,36.913 z M51.29,23.62 L57.594,29.97 L51.29,29.916 L51.29,23.62 z" fill="#000000"/>
      <path d="M42.499,1.5 C65.144,1.5 83.5,19.857 83.5,42.5 C83.5,65.144 65.144,83.5 42.5,83.5 C19.856,83.5 1.5,65.144 1.5,42.5 C1.5,19.857 19.856,1.5 42.5,1.5 L42.499,1.5 z M48.793,15.258 C47.869,15.206 22.012,15.26 22.012,15.26 C20.631,15.256 19.509,16.375 19.508,17.757 L19.508,65.935 C19.509,67.315 20.629,68.434 22.01,68.431 L64.049,68.36 C65.43,68.358 66.547,67.235 66.542,65.854 L66.424,33.201 C66.3,31.816 65.906,31.332 65.565,30.912 C65.565,30.912 51.161,16.406 50.756,15.993 C50.351,15.58 49.717,15.311 48.793,15.258 z M24.502,20.26 L46.297,20.319 L46.296,26.92 L45.906,26.881 L30.292,26.881 C28.913,26.881 27.795,27.999 27.795,29.378 C27.795,30.757 28.913,31.875 30.292,31.875 L45.906,31.875 L46.296,31.835 L46.296,32.391 C46.297,33.763 47.402,34.877 48.772,34.889 L61.437,34.997 L61.539,63.371 L24.502,63.433 L24.502,20.26 z M55.41,55.261 L30.292,55.261 C28.913,55.261 27.795,56.379 27.795,57.758 C27.795,59.137 28.913,60.255 30.292,60.255 L55.41,60.254 C56.79,60.255 57.907,59.137 57.907,57.758 C57.907,56.379 56.79,55.261 55.411,55.261 L55.41,55.261 z M55.41,46.147 L30.292,46.147 C28.913,46.147 27.795,47.265 27.795,48.644 C27.795,50.023 28.913,51.141 30.292,51.141 L55.41,51.141 C56.79,51.141 57.907,50.023 57.907,48.644 C57.907,47.265 56.79,46.147 55.411,46.147 L55.41,46.147 z M55.41,36.913 L30.292,36.913 C28.913,36.913 27.795,38.031 27.795,39.41 C27.795,40.789 28.913,41.907 30.292,41.906 L55.41,41.906 C56.79,41.907 57.907,40.789 57.907,39.41 C57.907,38.031 56.79,36.913 55.41,36.913 L55.41,36.913 z M51.29,23.62 L57.594,29.97 L51.29,29.916 L51.29,23.62 z" fill-opacity="0" stroke="#000000" stroke-width="0.25"/>
    </g>
  </g>
</svg>
