<?xml version="1.0" encoding="UTF-8"?>
<!DOCTYPE svg PUBLIC "-//W3C//DTD SVG 1.1//EN" "http://www.w3.org/Graphics/SVG/1.1/DTD/svg11.dtd">
<svg version="1.1" xmlns="http://www.w3.org/2000/svg" xmlns:xlink="http://www.w3.org/1999/xlink" x="0" y="0" width="84" height="84" viewBox="0, 0, 84, 84">
  <g id="Background">
    <rect x="0" y="0" width="84" height="84" fill="#000000" fill-opacity="0"/>
  </g>
  <g id="Layer_1">
    <g>
      <path d="M42.5,1.5 C65.144,1.5 83.5,19.856 83.5,42.5 C83.5,65.144 65.144,83.5 42.5,83.5 C19.856,83.5 1.5,65.144 1.5,42.5 C1.5,19.856 19.856,1.5 42.5,1.5 z M30.848,12.961 L30.848,12.961 C19.116,12.961 9.605,22.472 9.605,34.203 C10.031,42.634 14.447,50.488 22.583,53.668 C22.394,54.881 22.488,54.129 22.389,55.935 C22.389,68.127 32.273,78.011 44.465,78.011 C56.658,78.011 66.542,68.127 66.542,55.935 C66.372,52.582 66.578,54.416 65.77,50.452 C71.198,46.763 74.303,40.763 74.388,34.204 C74.389,23.292 65.597,14.44 54.742,14.44 C51.002,14.63 47.207,15.354 44.142,17.664 C43.086,16.951 42.096,16.128 40.974,15.525 C37.849,13.846 34.386,12.983 30.848,12.961 z" fill="#000000"/>
      <path d="M42.5,1.5 C65.144,1.5 83.5,19.856 83.5,42.5 C83.5,65.144 65.144,83.5 42.5,83.5 C19.856,83.5 1.5,65.144 1.5,42.5 C1.5,19.856 19.856,1.5 42.5,1.5 z M30.848,12.961 L30.848,12.961 C19.116,12.961 9.605,22.472 9.605,34.203 C10.031,42.634 14.447,50.488 22.583,53.668 C22.394,54.881 22.488,54.129 22.389,55.935 C22.389,68.127 32.273,78.011 44.465,78.011 C56.658,78.011 66.542,68.127 66.542,55.935 C66.372,52.582 66.578,54.416 65.77,50.452 C71.198,46.763 74.303,40.763 74.388,34.204 C74.389,23.292 65.597,14.44 54.742,14.44 C51.002,14.63 47.207,15.354 44.142,17.664 C43.086,16.951 42.096,16.128 40.974,15.525 C37.849,13.846 34.386,12.983 30.848,12.961 z" fill-opacity="0" stroke="#000000" stroke-width="0.25"/>
    </g>
    <path d="M43.63,50.251 C46.688,52.475 50.528,53.317 54.242,53.467 C56.408,53.357 58.687,53.291 60.682,52.325 C61.076,54.259 60.937,53.225 61.048,55.435 C61.048,64.869 53.4,72.518 43.965,72.518 C34.531,72.518 26.883,64.869 26.883,55.435 L26.971,54.591 C28.886,54.981 27.767,54.816 30.348,54.946 C35.239,54.699 39.775,53.404 43.63,50.251 z" fill="#000000"/>
    <path d="M35.828,40.411 C36.875,42.718 38.052,44.963 39.758,46.867 C36.735,48.908 34.058,49.929 30.348,49.952 C28.481,49.858 29.23,49.98 28.08,49.745 C29.238,45.686 32.304,42.56 35.828,40.411 z" fill="#000000"/>
    <path d="M50.675,39.828 C54.393,41.764 57.365,43.576 59.112,47.591 C57.581,48.243 55.896,48.452 54.242,48.473 C51.845,48.197 49.261,47.966 47.222,46.503 C48.668,44.361 50.164,42.487 50.675,39.828 z" fill="#000000"/>
    <path d="M30.348,17.454 C33.709,17.624 37.008,18.374 39.706,20.505 C36.259,23.973 34.715,28.91 34.596,33.704 L34.686,35.497 C29.349,38.016 24.917,42.473 23.199,48.243 C17.504,45.837 14.25,39.655 14.099,33.704 C14.099,24.729 21.374,17.455 30.348,17.454 z" fill="#000000"/>
    <path d="M54.242,18.934 C62.331,18.934 68.895,25.543 68.895,33.704 C68.668,38.239 66.993,42.182 63.481,45.156 C61.05,40.127 56.76,36.699 51.534,34.824 L51.591,33.703 C51.353,28.991 50.173,24.527 47.146,20.793 C49.188,19.404 51.846,19.045 54.242,18.934 z" fill="#000000"/>
    <path d="M43.965,38.352 L45.86,38.552 C44.325,42.184 45.223,40.58 43.295,43.434 C42.182,41.997 41.096,40.545 40.537,38.783 C42.79,38.324 41.647,38.469 43.965,38.352 z" fill="#000000"/>
    <path d="M43.284,23.957 C45.489,27.222 46.523,29.57 46.593,33.618 C44.926,33.364 45.801,33.458 43.965,33.358 C40.992,33.508 42.446,33.322 39.6,33.902 L39.59,33.704 C39.766,30.18 40.724,26.547 43.284,23.957 z" fill="#000000"/>
  </g>
</svg>
